<mxfile host="app.diagrams.net" modified="2024-05-26T15:31:24.056Z" agent="Mozilla/5.0 (Windows NT 10.0; Win64; x64) AppleWebKit/537.36 (KHTML, like Gecko) Chrome/125.0.0.0 Safari/537.36" etag="mro5s9mIyIvpiMi7T7uw" version="24.4.8" type="github">
  <diagram name="第 1 页" id="1KbhEXzSuvI97wwkLXDz">
    <mxGraphModel dx="842" dy="523" grid="0" gridSize="10" guides="1" tooltips="1" connect="1" arrows="1" fold="1" page="1" pageScale="1" pageWidth="827" pageHeight="1169" math="0" shadow="0">
      <root>
        <mxCell id="0" />
        <mxCell id="1" parent="0" />
        <mxCell id="-vQ6YhgY58RGX5Yvwsal-1" value="" style="curved=1;endArrow=none;html=1;rounded=0;endFill=0;fontStyle=0;fillColor=#dae8fc;strokeColor=#6c8ebf;strokeWidth=2;" edge="1" parent="1">
          <mxGeometry width="50" height="50" relative="1" as="geometry">
            <mxPoint x="204" y="260" as="sourcePoint" />
            <mxPoint x="204" y="260" as="targetPoint" />
            <Array as="points">
              <mxPoint x="148" y="250" />
              <mxPoint x="104" y="220" />
              <mxPoint x="120" y="160" />
              <mxPoint x="238" y="130" />
              <mxPoint x="188" y="80" />
              <mxPoint x="288" y="50" />
              <mxPoint x="388" y="120" />
              <mxPoint x="404" y="190" />
              <mxPoint x="324" y="270" />
            </Array>
          </mxGeometry>
        </mxCell>
        <mxCell id="-vQ6YhgY58RGX5Yvwsal-2" value="" style="curved=1;endArrow=none;html=1;rounded=0;endFill=0;fillColor=#d5e8d4;strokeColor=#82b366;strokeWidth=2;" edge="1" parent="1">
          <mxGeometry width="50" height="50" relative="1" as="geometry">
            <mxPoint x="504" y="255" as="sourcePoint" />
            <mxPoint x="504" y="255" as="targetPoint" />
            <Array as="points">
              <mxPoint x="454" y="235" />
              <mxPoint x="444" y="145" />
              <mxPoint x="544" y="115" />
              <mxPoint x="494" y="65" />
              <mxPoint x="594" y="45" />
              <mxPoint x="684" y="95" />
              <mxPoint x="714" y="175" />
              <mxPoint x="634" y="265" />
              <mxPoint x="554" y="265" />
            </Array>
          </mxGeometry>
        </mxCell>
        <mxCell id="-vQ6YhgY58RGX5Yvwsal-3" value="" style="ellipse;whiteSpace=wrap;html=1;fillColor=#dae8fc;strokeColor=#6c8ebf;" vertex="1" parent="1">
          <mxGeometry x="134" y="160" width="40" height="40" as="geometry" />
        </mxCell>
        <mxCell id="-vQ6YhgY58RGX5Yvwsal-4" value="" style="ellipse;whiteSpace=wrap;html=1;fillColor=#dae8fc;strokeColor=#6c8ebf;" vertex="1" parent="1">
          <mxGeometry x="194" y="200" width="50" height="50" as="geometry" />
        </mxCell>
        <mxCell id="-vQ6YhgY58RGX5Yvwsal-5" value="" style="ellipse;whiteSpace=wrap;html=1;fillColor=#dae8fc;strokeColor=#6c8ebf;" vertex="1" parent="1">
          <mxGeometry x="154" y="210" width="30" height="30" as="geometry" />
        </mxCell>
        <mxCell id="-vQ6YhgY58RGX5Yvwsal-6" value="" style="ellipse;whiteSpace=wrap;html=1;fillColor=#dae8fc;strokeColor=#6c8ebf;" vertex="1" parent="1">
          <mxGeometry x="184" y="150" width="40" height="40" as="geometry" />
        </mxCell>
        <mxCell id="-vQ6YhgY58RGX5Yvwsal-7" value="" style="ellipse;whiteSpace=wrap;html=1;fillColor=#dae8fc;strokeColor=#6c8ebf;" vertex="1" parent="1">
          <mxGeometry x="254" y="70" width="40" height="40" as="geometry" />
        </mxCell>
        <mxCell id="-vQ6YhgY58RGX5Yvwsal-8" value="" style="ellipse;whiteSpace=wrap;html=1;fillColor=#dae8fc;strokeColor=#6c8ebf;" vertex="1" parent="1">
          <mxGeometry x="214" y="80" width="30" height="30" as="geometry" />
        </mxCell>
        <mxCell id="-vQ6YhgY58RGX5Yvwsal-9" value="" style="ellipse;whiteSpace=wrap;html=1;fillColor=#dae8fc;strokeColor=#6c8ebf;" vertex="1" parent="1">
          <mxGeometry x="224" y="120" width="40" height="40" as="geometry" />
        </mxCell>
        <mxCell id="-vQ6YhgY58RGX5Yvwsal-10" value="" style="ellipse;whiteSpace=wrap;html=1;fillColor=#dae8fc;strokeColor=#6c8ebf;" vertex="1" parent="1">
          <mxGeometry x="254" y="170" width="75" height="80" as="geometry" />
        </mxCell>
        <mxCell id="-vQ6YhgY58RGX5Yvwsal-11" value="" style="ellipse;whiteSpace=wrap;html=1;fillColor=#dae8fc;strokeColor=#6c8ebf;" vertex="1" parent="1">
          <mxGeometry x="234" y="170" width="20" height="20" as="geometry" />
        </mxCell>
        <mxCell id="-vQ6YhgY58RGX5Yvwsal-12" value="" style="ellipse;whiteSpace=wrap;html=1;fillColor=#dae8fc;strokeColor=#6c8ebf;" vertex="1" parent="1">
          <mxGeometry x="274" y="115" width="50" height="50" as="geometry" />
        </mxCell>
        <mxCell id="-vQ6YhgY58RGX5Yvwsal-13" value="" style="ellipse;whiteSpace=wrap;html=1;fillColor=#dae8fc;strokeColor=#6c8ebf;" vertex="1" parent="1">
          <mxGeometry x="299" y="80" width="30" height="30" as="geometry" />
        </mxCell>
        <mxCell id="-vQ6YhgY58RGX5Yvwsal-14" value="" style="ellipse;whiteSpace=wrap;html=1;fillColor=#dae8fc;strokeColor=#6c8ebf;" vertex="1" parent="1">
          <mxGeometry x="334" y="130" width="50" height="50" as="geometry" />
        </mxCell>
        <mxCell id="-vQ6YhgY58RGX5Yvwsal-15" value="" style="ellipse;whiteSpace=wrap;html=1;fillColor=#dae8fc;strokeColor=#6c8ebf;" vertex="1" parent="1">
          <mxGeometry x="334" y="110" width="20" height="20" as="geometry" />
        </mxCell>
        <mxCell id="-vQ6YhgY58RGX5Yvwsal-16" value="X&lt;sub&gt;1&lt;/sub&gt;" style="ellipse;whiteSpace=wrap;html=1;fillColor=#FFD966;strokeColor=#FFD966;fontStyle=1;fontFamily=Times New Roman;" vertex="1" parent="1">
          <mxGeometry x="184" y="100" width="20" height="20" as="geometry" />
        </mxCell>
        <mxCell id="-vQ6YhgY58RGX5Yvwsal-18" value="" style="ellipse;whiteSpace=wrap;html=1;fillColor=#D5E8D4;strokeColor=#D5E8D4;" vertex="1" parent="1">
          <mxGeometry x="454" y="155" width="40" height="40" as="geometry" />
        </mxCell>
        <mxCell id="-vQ6YhgY58RGX5Yvwsal-19" value="" style="ellipse;whiteSpace=wrap;html=1;fillColor=#D5E8D4;strokeColor=#D5E8D4;" vertex="1" parent="1">
          <mxGeometry x="504" y="190" width="50" height="50" as="geometry" />
        </mxCell>
        <mxCell id="-vQ6YhgY58RGX5Yvwsal-20" value="" style="ellipse;whiteSpace=wrap;html=1;fillColor=#D5E8D4;strokeColor=#D5E8D4;" vertex="1" parent="1">
          <mxGeometry x="464" y="200" width="30" height="30" as="geometry" />
        </mxCell>
        <mxCell id="-vQ6YhgY58RGX5Yvwsal-21" value="" style="ellipse;whiteSpace=wrap;html=1;fillColor=#D5E8D4;strokeColor=#D5E8D4;" vertex="1" parent="1">
          <mxGeometry x="494" y="140" width="40" height="40" as="geometry" />
        </mxCell>
        <mxCell id="-vQ6YhgY58RGX5Yvwsal-22" value="" style="ellipse;whiteSpace=wrap;html=1;fillColor=#D5E8D4;strokeColor=#D5E8D4;" vertex="1" parent="1">
          <mxGeometry x="564" y="60" width="40" height="40" as="geometry" />
        </mxCell>
        <mxCell id="-vQ6YhgY58RGX5Yvwsal-23" value="" style="ellipse;whiteSpace=wrap;html=1;fillColor=#D5E8D4;strokeColor=#D5E8D4;" vertex="1" parent="1">
          <mxGeometry x="524" y="70" width="30" height="30" as="geometry" />
        </mxCell>
        <mxCell id="-vQ6YhgY58RGX5Yvwsal-24" value="" style="ellipse;whiteSpace=wrap;html=1;fillColor=#D5E8D4;strokeColor=#D5E8D4;" vertex="1" parent="1">
          <mxGeometry x="534" y="110" width="40" height="40" as="geometry" />
        </mxCell>
        <mxCell id="-vQ6YhgY58RGX5Yvwsal-25" value="" style="ellipse;whiteSpace=wrap;html=1;fillColor=#D5E8D4;strokeColor=#D5E8D4;" vertex="1" parent="1">
          <mxGeometry x="564" y="160" width="75" height="80" as="geometry" />
        </mxCell>
        <mxCell id="-vQ6YhgY58RGX5Yvwsal-26" value="" style="ellipse;whiteSpace=wrap;html=1;fillColor=#D5E8D4;strokeColor=#D5E8D4;" vertex="1" parent="1">
          <mxGeometry x="544" y="160" width="20" height="20" as="geometry" />
        </mxCell>
        <mxCell id="-vQ6YhgY58RGX5Yvwsal-27" value="" style="ellipse;whiteSpace=wrap;html=1;fillColor=#D5E8D4;strokeColor=#D5E8D4;" vertex="1" parent="1">
          <mxGeometry x="584" y="105" width="50" height="50" as="geometry" />
        </mxCell>
        <mxCell id="-vQ6YhgY58RGX5Yvwsal-28" value="" style="ellipse;whiteSpace=wrap;html=1;fillColor=#D5E8D4;strokeColor=#D5E8D4;" vertex="1" parent="1">
          <mxGeometry x="609" y="70" width="30" height="30" as="geometry" />
        </mxCell>
        <mxCell id="-vQ6YhgY58RGX5Yvwsal-29" value="" style="ellipse;whiteSpace=wrap;html=1;fillColor=#D5E8D4;strokeColor=#D5E8D4;" vertex="1" parent="1">
          <mxGeometry x="644" y="120" width="50" height="50" as="geometry" />
        </mxCell>
        <mxCell id="-vQ6YhgY58RGX5Yvwsal-30" value="" style="ellipse;whiteSpace=wrap;html=1;fillColor=#D5E8D4;strokeColor=#D5E8D4;" vertex="1" parent="1">
          <mxGeometry x="644" y="100" width="20" height="20" as="geometry" />
        </mxCell>
        <mxCell id="-vQ6YhgY58RGX5Yvwsal-33" value="" style="ellipse;whiteSpace=wrap;html=1;fillColor=#D5E8D4;strokeColor=#D5E8D4;" vertex="1" parent="1">
          <mxGeometry x="644" y="175" width="30" height="30" as="geometry" />
        </mxCell>
        <mxCell id="-vQ6YhgY58RGX5Yvwsal-34" value="" style="ellipse;whiteSpace=wrap;html=1;fillColor=#dae8fc;strokeColor=#6c8ebf;" vertex="1" parent="1">
          <mxGeometry x="344" y="190" width="30" height="30" as="geometry" />
        </mxCell>
        <mxCell id="-vQ6YhgY58RGX5Yvwsal-35" value="" style="ellipse;whiteSpace=wrap;html=1;fillColor=#D5E8D4;strokeColor=#D5E8D4;" vertex="1" parent="1">
          <mxGeometry x="554" y="235" width="20" height="20" as="geometry" />
        </mxCell>
        <mxCell id="-vQ6YhgY58RGX5Yvwsal-36" value="" style="ellipse;whiteSpace=wrap;html=1;fillColor=#D5E8D4;strokeColor=#D5E8D4;" vertex="1" parent="1">
          <mxGeometry x="644" y="210" width="20" height="20" as="geometry" />
        </mxCell>
        <mxCell id="-vQ6YhgY58RGX5Yvwsal-37" value="X&lt;sub&gt;1&lt;/sub&gt;" style="ellipse;whiteSpace=wrap;html=1;fillColor=#FFD966;strokeColor=#FFD966;fontStyle=1;fontFamily=Times New Roman;" vertex="1" parent="1">
          <mxGeometry x="494" y="100" width="20" height="20" as="geometry" />
        </mxCell>
        <mxCell id="-vQ6YhgY58RGX5Yvwsal-38" value="X&lt;span style=&quot;font-size: 10px;&quot;&gt;2&lt;/span&gt;" style="ellipse;whiteSpace=wrap;html=1;fillColor=#FFD966;strokeColor=#FFD966;fontStyle=1;fontFamily=Times New Roman;" vertex="1" parent="1">
          <mxGeometry x="424" y="200" width="20" height="20" as="geometry" />
        </mxCell>
        <mxCell id="-vQ6YhgY58RGX5Yvwsal-39" value="X&lt;sub&gt;2&lt;/sub&gt;" style="ellipse;whiteSpace=wrap;html=1;fillColor=#FFD966;strokeColor=#FFD966;fontStyle=1;fontFamily=Times New Roman;" vertex="1" parent="1">
          <mxGeometry x="114" y="200" width="20" height="20" as="geometry" />
        </mxCell>
        <mxCell id="-vQ6YhgY58RGX5Yvwsal-40" value="&lt;b&gt;频谱空间&lt;/b&gt;" style="text;html=1;align=center;verticalAlign=middle;whiteSpace=wrap;rounded=0;" vertex="1" parent="1">
          <mxGeometry x="224" y="280" width="60" height="30" as="geometry" />
        </mxCell>
        <mxCell id="-vQ6YhgY58RGX5Yvwsal-41" value="&lt;b&gt;声学空间&lt;/b&gt;" style="text;html=1;align=center;verticalAlign=middle;whiteSpace=wrap;rounded=0;" vertex="1" parent="1">
          <mxGeometry x="539" y="280" width="60" height="30" as="geometry" />
        </mxCell>
        <mxCell id="-vQ6YhgY58RGX5Yvwsal-42" value="&lt;b&gt;对抗扰动&lt;/b&gt;" style="text;html=1;align=center;verticalAlign=middle;whiteSpace=wrap;rounded=0;" vertex="1" parent="1">
          <mxGeometry x="124" y="95" width="60" height="30" as="geometry" />
        </mxCell>
        <mxCell id="-vQ6YhgY58RGX5Yvwsal-43" value="&lt;b&gt;对抗扰动&lt;/b&gt;" style="text;html=1;align=center;verticalAlign=middle;whiteSpace=wrap;rounded=0;" vertex="1" parent="1">
          <mxGeometry x="434" y="95" width="60" height="30" as="geometry" />
        </mxCell>
        <mxCell id="-vQ6YhgY58RGX5Yvwsal-45" value="" style="endArrow=classic;html=1;rounded=0;strokeWidth=2;fillColor=#dae8fc;strokeColor=#6c8ebf;" edge="1" parent="1">
          <mxGeometry width="50" height="50" relative="1" as="geometry">
            <mxPoint x="340" y="87" as="sourcePoint" />
            <mxPoint x="350" y="60" as="targetPoint" />
          </mxGeometry>
        </mxCell>
        <mxCell id="-vQ6YhgY58RGX5Yvwsal-46" value="" style="endArrow=classic;html=1;rounded=0;strokeWidth=2;fillColor=#d5e8d4;strokeColor=#82b366;" edge="1" parent="1">
          <mxGeometry width="50" height="50" relative="1" as="geometry">
            <mxPoint x="514" y="69" as="sourcePoint" />
            <mxPoint x="490" y="49" as="targetPoint" />
          </mxGeometry>
        </mxCell>
        <mxCell id="-vQ6YhgY58RGX5Yvwsal-47" value="&lt;b&gt;决策边界&lt;/b&gt;" style="text;html=1;align=center;verticalAlign=middle;whiteSpace=wrap;rounded=0;" vertex="1" parent="1">
          <mxGeometry x="324" y="30" width="60" height="30" as="geometry" />
        </mxCell>
        <mxCell id="-vQ6YhgY58RGX5Yvwsal-48" value="&lt;b&gt;决策边界&lt;/b&gt;" style="text;html=1;align=center;verticalAlign=middle;whiteSpace=wrap;rounded=0;" vertex="1" parent="1">
          <mxGeometry x="434" y="30" width="60" height="30" as="geometry" />
        </mxCell>
      </root>
    </mxGraphModel>
  </diagram>
</mxfile>
